<?xml version="1.0" standalone="no"?>
<!DOCTYPE svg PUBLIC "-//W3C//DTD SVG 20010904//EN"
 "http://www.w3.org/TR/2001/REC-SVG-20010904/DTD/svg10.dtd">
<svg version="1.0" xmlns="http://www.w3.org/2000/svg"
 width="700.000000pt" height="700.000000pt" viewBox="0 0 700.000000 700.000000"
 preserveAspectRatio="xMidYMid meet">
<metadata>
Created by potrace 1.14, written by Peter Selinger 2001-2017
</metadata>
<g transform="translate(0.000000,700.000000) scale(0.100000,-0.100000)"
fill="#000000" stroke="none">
<path d="M0 3500 l0 -3500 3500 0 3500 0 0 3500 0 3500 -3500 0 -3500 0 0
-3500z m3561 2538 c19 -6 275 -145 569 -308 294 -163 814 -451 1154 -640 341
-189 638 -359 659 -379 105 -94 106 -264 4 -362 -21 -20 -519 -303 -1203 -684
-1146 -637 -1169 -649 -1230 -653 -34 -2 -78 1 -98 8 -54 18 -2356 1306 -2389
1338 -100 93 -100 271 -1 364 27 25 2207 1236 2339 1299 66 32 136 38 196 17z
m-1145 -2909 c584 -324 1066 -589 1071 -589 6 0 493 268 1083 596 882 490
1075 594 1085 582 6 -7 63 -105 124 -217 93 -168 111 -205 100 -216 -8 -6
-527 -296 -1153 -644 -716 -397 -1157 -636 -1186 -643 -26 -6 -68 -8 -93 -4
-35 5 -324 162 -1199 647 -634 353 -1157 644 -1161 648 -4 4 22 61 59 127 36
65 91 163 121 217 43 77 59 97 71 92 10 -3 494 -271 1078 -596z m-5 -1013
l1076 -597 1074 597 c591 328 1077 598 1081 600 11 7 252 -436 242 -445 -12
-10 -2202 -1226 -2276 -1263 -76 -38 -155 -40 -230 -5 -44 20 -2286 1262
-2296 1272 -6 5 241 444 247 441 3 -1 490 -272 1082 -600z"/>
<path d="M2624 5036 c-468 -259 -861 -478 -873 -486 -21 -14 -17 -18 116 -92
76 -42 473 -263 882 -492 l744 -415 873 486 c481 268 874 489 874 492 0 6
-1744 974 -1758 977 -4 1 -390 -210 -858 -470z"/>
</g>
</svg>
