<?xml version="1.0" standalone="no"?>
<!DOCTYPE svg PUBLIC "-//W3C//DTD SVG 20010904//EN"
 "http://www.w3.org/TR/2001/REC-SVG-20010904/DTD/svg10.dtd">
<svg version="1.0" xmlns="http://www.w3.org/2000/svg"
 width="512.000000pt" height="512.000000pt" viewBox="0 0 512.000000 512.000000"
 preserveAspectRatio="xMidYMid meet">
<metadata>
Created by potrace 1.14, written by Peter Selinger 2001-2017
</metadata>
<g transform="translate(0.000000,512.000000) scale(0.100000,-0.100000)"
fill="#000000" stroke="none">
<path d="M2465 4672 c-22 -10 -76 -39 -120 -64 -44 -25 -105 -59 -135 -75 -30
-17 -98 -54 -150 -83 -52 -29 -120 -67 -150 -83 -30 -16 -113 -62 -185 -102
-71 -40 -161 -89 -200 -110 -38 -21 -104 -57 -145 -80 -62 -35 -637 -353 -800
-442 -74 -41 -107 -70 -129 -116 -39 -81 -24 -180 37 -242 24 -24 256 -158
726 -418 28 -16 94 -52 146 -82 52 -29 114 -64 138 -77 24 -12 51 -28 60 -33
18 -10 217 -122 287 -160 22 -12 150 -84 285 -160 135 -76 276 -154 313 -173
93 -48 166 -48 250 1 59 35 110 63 197 110 41 22 92 51 112 64 21 13 39 23 42
23 2 0 67 36 145 80 77 44 143 80 145 80 2 0 39 20 80 45 42 25 78 45 80 45 2
0 41 22 88 49 46 26 124 70 173 96 50 27 107 59 127 72 21 13 39 23 42 23 2 0
48 25 102 56 55 31 126 71 159 89 76 41 132 72 170 95 17 9 57 32 90 50 164
88 195 112 226 172 37 72 17 191 -42 245 -21 19 -129 81 -349 201 -36 19 -78
43 -95 52 -16 9 -91 51 -165 92 -74 41 -155 86 -180 100 -25 14 -61 34 -80 45
-20 11 -70 39 -112 61 -41 23 -115 64 -163 92 -48 27 -90 50 -92 50 -2 0 -76
41 -166 91 -89 51 -189 106 -222 124 -33 18 -132 72 -219 121 -145 80 -165 89
-220 91 -44 3 -72 -2 -101 -15z m351 -580 c137 -76 280 -155 317 -176 37 -20
83 -45 102 -56 19 -11 65 -36 102 -56 37 -20 73 -40 78 -44 6 -4 39 -23 75
-43 36 -19 92 -50 126 -69 33 -18 142 -78 241 -133 l182 -100 -42 -26 c-23
-14 -71 -41 -107 -61 -56 -30 -354 -196 -460 -255 -19 -11 -62 -35 -95 -53
-33 -18 -106 -59 -163 -92 -57 -32 -105 -58 -107 -58 -2 0 -58 -31 -125 -70
-67 -38 -123 -70 -125 -70 -1 0 -56 -30 -121 -67 -66 -36 -123 -66 -129 -66
-5 0 -244 130 -530 290 -286 160 -547 305 -581 324 -278 155 -364 204 -364
210 0 4 37 27 83 52 45 24 102 56 127 70 119 66 332 183 390 215 36 19 94 52
130 72 36 20 96 54 133 74 37 20 84 46 105 58 20 11 71 39 112 61 41 22 80 43
85 47 6 4 51 29 100 56 50 26 110 60 135 75 25 15 52 28 61 28 9 1 128 -61
265 -137z"/>
<path d="M730 2731 c0 -5 -26 -55 -58 -113 -32 -57 -61 -110 -65 -118 -4 -8
-21 -39 -38 -69 -16 -30 -27 -57 -22 -61 4 -5 51 -31 103 -60 52 -29 115 -64
140 -77 25 -14 164 -92 310 -173 146 -81 286 -159 313 -174 95 -52 145 -80
277 -154 74 -41 158 -87 185 -102 28 -16 123 -68 211 -118 89 -49 168 -92 175
-96 8 -4 23 -12 34 -19 11 -7 61 -34 110 -62 82 -45 96 -50 155 -50 57 0 73 5
135 39 125 70 139 78 230 129 50 27 110 61 135 74 25 14 79 44 120 66 41 22
92 51 112 64 21 13 40 23 42 23 3 0 27 13 53 28 26 16 77 44 113 64 92 50 154
85 240 133 120 67 170 95 250 138 41 22 80 43 85 47 6 4 37 22 70 40 33 18 76
42 95 53 57 32 211 117 270 149 30 17 59 34 63 38 5 4 -5 31 -21 61 -102 186
-164 295 -173 304 -6 6 -17 5 -30 -3 -11 -7 -43 -25 -72 -41 -29 -16 -113 -62
-187 -103 -74 -42 -157 -88 -185 -103 -27 -15 -63 -35 -80 -45 -30 -18 -73
-41 -195 -108 -36 -19 -114 -63 -175 -97 -60 -34 -130 -73 -155 -87 -50 -28
-149 -83 -195 -108 -43 -24 -140 -78 -205 -113 -30 -16 -84 -47 -120 -67 -36
-21 -100 -56 -142 -79 l-78 -42 -87 47 c-49 26 -98 52 -110 58 -13 6 -23 14
-23 19 0 4 -4 7 -8 7 -8 0 -272 144 -527 287 -49 28 -112 63 -140 78 -27 15
-70 39 -95 53 -25 13 -67 37 -95 52 -27 15 -167 92 -310 172 -143 80 -287 160
-320 178 -33 18 -64 36 -69 41 -13 12 -46 12 -46 0z"/>
<path d="M709 1833 c-18 -32 -48 -87 -67 -123 -19 -36 -50 -91 -69 -123 -18
-32 -31 -62 -28 -67 4 -7 293 -170 470 -265 22 -12 112 -62 200 -112 89 -50
197 -110 240 -133 113 -61 119 -64 125 -70 3 -3 14 -10 25 -16 11 -6 56 -30
100 -54 44 -24 238 -131 430 -239 328 -183 354 -195 410 -199 61 -4 105 10
200 66 17 9 86 48 155 86 69 38 167 94 218 123 51 29 95 53 97 53 2 0 26 13
53 29 27 16 89 50 138 77 49 26 106 58 126 71 21 13 39 23 42 23 2 0 48 25
102 56 55 31 108 60 119 66 11 5 29 14 40 21 17 10 101 57 282 158 18 10 63
35 100 55 37 20 73 40 78 44 6 4 39 23 75 42 105 57 166 92 191 109 23 15 23
17 6 42 -16 25 -29 47 -93 165 -75 136 -96 172 -103 172 -3 0 -15 -6 -26 -13
-11 -8 -45 -27 -75 -44 -30 -16 -98 -54 -150 -83 -99 -55 -177 -98 -245 -135
-47 -26 -395 -220 -442 -246 -18 -10 -63 -35 -100 -55 -37 -21 -90 -50 -116
-66 -26 -15 -49 -28 -51 -28 -2 0 -52 -27 -112 -61 -60 -33 -138 -77 -174 -96
-36 -20 -78 -44 -95 -54 -45 -26 -155 -87 -192 -106 -37 -19 -35 -19 -158 50
-48 27 -896 498 -1110 617 -27 15 -133 74 -235 131 -207 115 -342 189 -346
189 -1 0 -17 -26 -35 -57z"/>
</g>
</svg>
